# xmcd
#
# Track frame offsets:
#	150
#	14850
#	29027
#	46127
#	60452
#	76205
#	89705
#	103205
#	121957
#	140107
#	155257
#	173035
#	187060
#
# Disc length: 2767 seconds
#
# Revision: 1
# Processed by: cddbd v1.5.2PL0 Copyright (c) Steve Scherf et al.
# Submitted via: EasyCDDAExtractor 15.3.0.1
#
DISCID=b80acd0d
DTITLE=Ana Barbara - Tu Decision
DYEAR=1999
DGENRE=Latin
TTITLE0=Pensando En Tu Amor
TTITLE1=Engañada
TTITLE2=Yo Quiero Saber
TTITLE3=Ahora Vete
TTITLE4=Y Yo Solo Se Querer
TTITLE5=Si Me Das Tu Amor
TTITLE6=Tu Decision
TTITLE7=Veneno Con Sabor A Miel
TTITLE8=Besame, Tocame
TTITLE9=Quise Olvidar
TTITLE10=Me Hace Falta Una Pieza
TTITLE11=Todo Contigo
TTITLE12=Engañada (Remix)
EXTD=YEAR: 1999 ID3G: 12
EXTT0=
EXTT1=
EXTT2=
EXTT3=
EXTT4=
EXTT5=
EXTT6=
EXTT7=
EXTT8=
EXTT9=
EXTT10=
EXTT11=
EXTT12=
PLAYORDER=
